C:\Users\r0593348\3dpredictsim\Results\batch_windlass\Pog_s1_tmt_bCst_d00_k800_WL40_ig24_act_TTC_GRF.mot
nRows=10
nColumns=19

name C:\Users\r0593348\3dpredictsim\Results\batch_windlass\Pog_s1_tmt_bCst_d00_k800_WL40_ig24_act_TTC_GRF.mot
datacolumns 19
datarows 10
range 0.6385369407 0.7534735901
endheader
time 	ground_force_vx	ground_force_vy	ground_force_vz	ground_force_px	ground_force_py	ground_force_pz	1_ground_force_vx	1_ground_force_vy	1_ground_force_vz	1_ground_force_px	1_ground_force_py	1_ground_force_pz	ground_torque_x	ground_torque_y	ground_torque_z	1_ground_torque_x	1_ground_torque_y	1_ground_torque_z
        0.6385369407	       44.6421521566	      245.2894182376	        4.4670715041	        0.4355856856	        0.0000000000	        0.0189495032	      -46.2788557076	       38.2494440896	      -15.6767549382	        0.9923514863	        0.0000000000	       -0.0521264537	        0.0000000000	        0.0000000000	        0.0000000000	        0.0000000000	        0.0000000000	        0.0000000000	
        0.6513076795	       30.1660793511	      195.1662705656	       16.9666873845	        0.4389208388	        0.0000000000	        0.0174828081	     -134.2167612094	      146.2334317453	      -63.3109229465	        0.9999083532	        0.0000000000	       -0.0499060556	        0.0000000000	        0.0000000000	        0.0000000000	        0.0000000000	        0.0000000000	        0.0000000000	
        0.6640784184	       27.9736436898	      145.8969394020	       15.2522782731	        0.4393743502	        0.0000000000	        0.0174073980	      -93.3320088663	      389.5569122738	      -14.7905584634	        1.0051635064	        0.0000000000	       -0.0476035174	        0.0000000000	        0.0000000000	        0.0000000000	        0.0000000000	        0.0000000000	        0.0000000000	
        0.6768491572	       15.5209756982	       86.4885438183	       12.0887003428	        0.4394043394	        0.0000000000	        0.0174576580	      -89.6494390903	      659.5780892295	       12.6857640822	        1.0100950006	        0.0000000000	       -0.0478342427	        0.0000000000	        0.0000000000	        0.0000000000	        0.0000000000	        0.0000000000	        0.0000000000	
        0.6896198960	        1.8793756019	       25.6116713130	        5.5081929029	        0.4390433013	        0.0000000000	        0.0175723756	     -142.7260106960	      920.2959961410	       23.2099917851	        1.0207414791	        0.0000000000	       -0.0501299877	        0.0000000000	        0.0000000000	        0.0000000000	        0.0000000000	        0.0000000000	        0.0000000000	
        0.7023906348	        0.5378853830	       -0.5325919049	        0.0106824538	        0.0000000000	        0.0000000000	        0.0000000000	     -169.2506429679	     1009.3488107266	       28.8225991233	        1.0281429816	        0.0000000000	       -0.0515858519	        0.0000000000	        0.0000000000	        0.0000000000	        0.0000000000	        0.0000000000	        0.0000000000	
        0.7151613736	        0.6388026431	       -0.4456922892	        0.0783178685	        0.0000000000	        0.0000000000	        0.0000000000	     -155.4271385798	      971.8619128003	       28.9368711680	        1.0338041497	        0.0000000000	       -0.0525695460	        0.0000000000	        0.0000000000	        0.0000000000	        0.0000000000	        0.0000000000	        0.0000000000	
        0.7279321124	       -3.9487422645	        2.4144931072	       -0.5100297948	        0.0000000000	        0.0000000000	        0.0000000000	     -146.3196941326	      889.5905683766	       22.2694351543	        1.0383800974	        0.0000000000	       -0.0532119057	        0.0000000000	        0.0000000000	        0.0000000000	        0.0000000000	        0.0000000000	        0.0000000000	
        0.7407028512	       -1.6001589849	        0.8929945699	       -0.1820468999	        0.0000000000	        0.0000000000	        0.0000000000	     -128.1991485126	      826.2291487091	       18.4685739489	        1.0422467471	        0.0000000000	       -0.0532478846	        0.0000000000	        0.0000000000	        0.0000000000	        0.0000000000	        0.0000000000	        0.0000000000	
        0.7534735901	       -0.6108171004	        0.3295614276	       -0.0587077223	        0.0000000000	        0.0000000000	        0.0000000000	     -109.5356294362	      769.9662175272	       17.8036282036	        1.0466234004	        0.0000000000	       -0.0530569493	        0.0000000000	        0.0000000000	        0.0000000000	        0.0000000000	        0.0000000000	        0.0000000000	
